name ./resultDataOpenSim/trcMotMarkerGrf/sub10/grf-15-05.mot
datacolumns 19
datarows 25
range 0.50000000 0.59600000
endheader

                time	     ground_force_vx	     ground_force_vy	     ground_force_vz	     ground_force_px	     ground_force_py	     ground_force_pz	   l_ground_force_vx	   l_ground_force_vy	   l_ground_force_vz	   l_ground_force_px	   l_ground_force_py	   l_ground_force_pz	     ground_torque_x	     ground_torque_y	     ground_torque_z	   l_ground_torque_x	   l_ground_torque_y	   l_ground_torque_z	
          0.50000000	         68.66603291	        608.69506893	        -54.59593070	         -0.73023458	          0.00000000	          0.08300173	          0.00000000	          0.00000000	          0.00000000	          0.00000000	          0.00000000	          0.00000000	          0.00000000	          5.43344822	          0.00000000	          0.00000000	          0.00000000	          0.00000000	
          0.50400000	         69.47169360	        618.77212396	        -55.93021141	         -0.72749902	          0.00000000	          0.08301949	          0.00000000	          0.00000000	          0.00000000	          0.00000000	          0.00000000	          0.00000000	          0.00000000	          5.37670284	          0.00000000	          0.00000000	          0.00000000	          0.00000000	
          0.50800000	         69.88922232	        629.16125541	        -56.86032771	         -0.72473752	          0.00000000	          0.08290522	          0.00000000	          0.00000000	          0.00000000	          0.00000000	          0.00000000	          0.00000000	          0.00000000	          5.33809900	          0.00000000	          0.00000000	          0.00000000	          0.00000000	
          0.51200000	         69.86035529	        639.98177135	        -57.44127908	         -0.72193143	          0.00000000	          0.08268258	          0.00000000	          0.00000000	          0.00000000	          0.00000000	          0.00000000	          0.00000000	          0.00000000	          5.31584772	          0.00000000	          0.00000000	          0.00000000	          0.00000000	
          0.51600000	         69.40419321	        651.20921535	        -57.76631503	         -0.71901159	          0.00000000	          0.08240487	          0.00000000	          0.00000000	          0.00000000	          0.00000000	          0.00000000	          0.00000000	          0.00000000	          5.30189907	          0.00000000	          0.00000000	          0.00000000	          0.00000000	
          0.52000000	         68.68102114	        662.87529605	        -57.94639995	         -0.71600026	          0.00000000	          0.08210280	          0.00000000	          0.00000000	          0.00000000	          0.00000000	          0.00000000	          0.00000000	          0.00000000	          5.28349583	          0.00000000	          0.00000000	          0.00000000	          0.00000000	
          0.52400000	         67.98726419	        675.16225147	        -58.09346787	         -0.71306100	          0.00000000	          0.08176018	          0.00000000	          0.00000000	          0.00000000	          0.00000000	          0.00000000	          0.00000000	          0.00000000	          5.24571234	          0.00000000	          0.00000000	          0.00000000	          0.00000000	
          0.52800000	         67.68960448	        688.23640198	        -58.29955285	         -0.71038037	          0.00000000	          0.08135492	          0.00000000	          0.00000000	          0.00000000	          0.00000000	          0.00000000	          0.00000000	          0.00000000	          5.17467282	          0.00000000	          0.00000000	          0.00000000	          0.00000000	
          0.53200000	         68.13816410	        702.01791290	        -58.61948248	         -0.70802959	          0.00000000	          0.08090081	          0.00000000	          0.00000000	          0.00000000	          0.00000000	          0.00000000	          0.00000000	          0.00000000	          5.06098214	          0.00000000	          0.00000000	          0.00000000	          0.00000000	
          0.53600000	         69.59850154	        716.17844738	        -59.05683410	         -0.70595909	          0.00000000	          0.08043638	          0.00000000	          0.00000000	          0.00000000	          0.00000000	          0.00000000	          0.00000000	          0.00000000	          4.90262629	          0.00000000	          0.00000000	          0.00000000	          0.00000000	
          0.54000000	         72.22306612	        730.35161449	        -59.56002862	         -0.70410905	          0.00000000	          0.07998848	          0.00000000	          0.00000000	          0.00000000	          0.00000000	          0.00000000	          0.00000000	          0.00000000	          4.70643506	          0.00000000	          0.00000000	          0.00000000	          0.00000000	
          0.54400000	         76.04606699	        744.30312043	        -60.03764142	         -0.70248786	          0.00000000	          0.07955467	          0.00000000	          0.00000000	          0.00000000	          0.00000000	          0.00000000	          0.00000000	          0.00000000	          4.48749473	          0.00000000	          0.00000000	          0.00000000	          0.00000000	
          0.54800000	         80.98642038	        757.91180997	        -60.37294152	         -0.70114248	          0.00000000	          0.07911125	          0.00000000	          0.00000000	          0.00000000	          0.00000000	          0.00000000	          0.00000000	          0.00000000	          4.26663124	          0.00000000	          0.00000000	          0.00000000	          0.00000000	
          0.55200000	         86.86609779	        771.03699564	        -60.42622293	         -0.70007903	          0.00000000	          0.07863564	          0.00000000	          0.00000000	          0.00000000	          0.00000000	          0.00000000	          0.00000000	          0.00000000	          4.06677101	          0.00000000	          0.00000000	          0.00000000	          0.00000000	
          0.55600000	         93.45452191	        783.44273979	        -60.04993932	         -0.69922955	          0.00000000	          0.07812080	          0.00000000	          0.00000000	          0.00000000	          0.00000000	          0.00000000	          0.00000000	          0.00000000	          3.90917918	          0.00000000	          0.00000000	          0.00000000	          0.00000000	
          0.56000000	        100.53428452	        794.85745737	        -59.13159865	         -0.69850371	          0.00000000	          0.07756803	          0.00000000	          0.00000000	          0.00000000	          0.00000000	          0.00000000	          0.00000000	          0.00000000	          3.81028526	          0.00000000	          0.00000000	          0.00000000	          0.00000000	
          0.56400000	        107.96183331	        805.07709447	        -57.64011282	         -0.69786062	          0.00000000	          0.07697303	          0.00000000	          0.00000000	          0.00000000	          0.00000000	          0.00000000	          0.00000000	          0.00000000	          3.77941828	          0.00000000	          0.00000000	          0.00000000	          0.00000000	
          0.56800000	        115.68713530	        813.97901813	        -55.63670630	         -0.69731434	          0.00000000	          0.07632640	          0.00000000	          0.00000000	          0.00000000	          0.00000000	          0.00000000	          0.00000000	          0.00000000	          3.81760176	          0.00000000	          0.00000000	          0.00000000	          0.00000000	
          0.57200000	        123.71603584	        821.44505307	        -53.24435512	         -0.69688094	          0.00000000	          0.07562591	          0.00000000	          0.00000000	          0.00000000	          0.00000000	          0.00000000	          0.00000000	          0.00000000	          3.91753551	          0.00000000	          0.00000000	          0.00000000	          0.00000000	
          0.57600000	        132.04442553	        827.30395409	        -50.60607047	         -0.69653956	          0.00000000	          0.07488223	          0.00000000	          0.00000000	          0.00000000	          0.00000000	          0.00000000	          0.00000000	          0.00000000	          4.06477785	          0.00000000	          0.00000000	          0.00000000	          0.00000000	
          0.58000000	        140.61816183	        831.34664978	        -47.85529996	         -0.69625174	          0.00000000	          0.07411027	          0.00000000	          0.00000000	          0.00000000	          0.00000000	          0.00000000	          0.00000000	          0.00000000	          4.23989445	          0.00000000	          0.00000000	          0.00000000	          0.00000000	
          0.58400000	        149.34275645	        833.34265056	        -45.11013993	         -0.69600280	          0.00000000	          0.07331798	          0.00000000	          0.00000000	          0.00000000	          0.00000000	          0.00000000	          0.00000000	          0.00000000	          4.42112381	          0.00000000	          0.00000000	          0.00000000	          0.00000000	
          0.58800000	        158.12004566	        833.00368802	        -42.48893962	         -0.69579751	          0.00000000	          0.07251583	          0.00000000	          0.00000000	          0.00000000	          0.00000000	          0.00000000	          0.00000000	          0.00000000	          4.58707371	          0.00000000	          0.00000000	          0.00000000	          0.00000000	
          0.59200000	        166.86154583	        829.99506474	        -40.11416020	         -0.69560476	          0.00000000	          0.07173848	          0.00000000	          0.00000000	          0.00000000	          0.00000000	          0.00000000	          0.00000000	          0.00000000	          4.71906926	          0.00000000	          0.00000000	          0.00000000	          0.00000000	
          0.59600000	        175.45613804	        824.11241060	        -38.08446318	         -0.69534116	          0.00000000	          0.07102849	          0.00000000	          0.00000000	          0.00000000	          0.00000000	          0.00000000	          0.00000000	          0.00000000	          4.80281309	          0.00000000	          0.00000000	          0.00000000	          0.00000000	
